<?xml version="1.0" encoding="utf-8"?>
<!-- Svg Vector Icons : http://www.onlinewebfonts.com/icon -->
<!DOCTYPE svg PUBLIC "-//W3C//DTD SVG 1.1//EN" "http://www.w3.org/Graphics/SVG/1.1/DTD/svg11.dtd">
<svg version="1.1" xmlns="http://www.w3.org/2000/svg" xmlns:xlink="http://www.w3.org/1999/xlink" x="0px" y="0px" viewBox="0 0 256 256" enable-background="new 0 0 256 256" xml:space="preserve">
<metadata> Svg Vector Icons : http://www.onlinewebfonts.com/icon </metadata>
<g><g><g><g><path fill="#000000" d="M71.2,78c2.1-2.4,4.4-4.6,6.8-6.8c-6-10.1-17.4-24.2-19.9-26.7c-3.8-3.8-9.8-3.8-13.6,0s-3.8,9.8,0,13.6C47.1,60.7,61.1,72,71.2,78z"/><path fill="#000000" d="M52.3,128c0-1.6,0.1-3.2,0.2-4.8c-11.4-2.9-29.3-4.8-32.9-4.8c-5.3,0-9.6,4.3-9.6,9.6c0,5.3,4.3,9.6,9.6,9.6c3.6,0,21.5-2,32.9-4.8C52.4,131.2,52.3,129.6,52.3,128z"/><path fill="#000000" d="M44.6,197.9c-3.8,3.8-3.8,9.8,0,13.6c3.8,3.8,9.8,3.8,13.6,0c2.5-2.5,13.8-16.6,19.9-26.7c-2.4-2.1-4.6-4.4-6.8-6.8C61.1,184,47.1,195.3,44.6,197.9z"/><path fill="#000000" d="M128,203.7c-1.6,0-3.2-0.1-4.8-0.2c-2.9,11.4-4.8,29.3-4.8,32.9c0,5.3,4.3,9.6,9.6,9.6c5.3,0,9.6-4.3,9.6-9.6c0-3.6-2-21.5-4.8-32.9C131.2,203.6,129.6,203.7,128,203.7z"/><path fill="#000000" d="M184.7,178c-2.1,2.4-4.4,4.6-6.8,6.8c6,10.1,17.4,24.2,19.9,26.7c3.8,3.8,9.8,3.8,13.6,0c3.8-3.8,3.8-9.8,0-13.6C208.9,195.3,194.8,184,184.7,178z"/><path fill="#000000" d="M236.4,118.4c-3.6,0-21.5,2-32.9,4.8c0.1,1.6,0.2,3.2,0.2,4.8s-0.1,3.2-0.2,4.8c11.4,2.9,29.3,4.8,32.9,4.8c5.3,0,9.6-4.3,9.6-9.6C246,122.7,241.7,118.4,236.4,118.4z"/><path fill="#000000" d="M211.4,58.1c3.8-3.8,3.8-9.8,0-13.6s-9.8-3.8-13.6,0c-2.5,2.5-13.8,16.6-19.9,26.7c2.4,2.1,4.6,4.4,6.8,6.8C194.8,72,208.9,60.7,211.4,58.1z"/><path fill="#000000" d="M128,52.3c1.6,0,3.2,0.1,4.8,0.2c2.9-11.4,4.8-29.3,4.8-32.9c0-5.3-4.3-9.6-9.6-9.6c-5.3,0-9.6,4.3-9.6,9.6c0,3.6,2,21.5,4.8,32.9C124.8,52.4,126.4,52.3,128,52.3z"/><path fill="#000000" d="M128,55.6C88,55.6,55.6,88.1,55.6,128c0,39.9,32.5,72.4,72.4,72.4s72.4-32.5,72.4-72.4C200.4,88.1,167.9,55.6,128,55.6z M128,187.3c-32.7,0-59.3-26.6-59.3-59.3c0-32.7,26.6-59.3,59.3-59.3c32.7,0,59.3,26.6,59.3,59.3C187.3,160.7,160.7,187.3,128,187.3z"/><path fill="#000000" d="M105.4,132.1c-0.2-1.3-0.4-2.7-0.4-4.1s0.2-2.7,0.4-4.1c-5.6-1.3-12.5-2.5-20.2-2.5c-4.6,0-8.9,0.4-12.9,1c-0.2,1.8-0.3,3.7-0.3,5.5s0.1,3.7,0.3,5.5c3.9,0.6,8.3,1.1,12.9,1.1C92.8,134.6,99.8,133.4,105.4,132.1z"/><path fill="#000000" d="M128,105c1.4,0,2.7,0.2,4.1,0.4c1.3-5.6,2.5-12.5,2.5-20.2c0-4.6-0.4-8.9-1-12.9c-1.8-0.2-3.7-0.3-5.5-0.3c-1.9,0-3.7,0.1-5.5,0.3c-0.6,4-1,8.3-1,12.9c0,7.7,1.2,14.6,2.5,20.2C125.2,105.1,126.6,105,128,105z"/><path fill="#000000" d="M163.4,84.7c-3.2,2.4-6.6,5.1-9.8,8.4c-5.4,5.4-9.5,11.1-12.5,16c2.2,1.6,4.2,3.5,5.8,5.8c4.9-3,10.6-7.1,16-12.5c3.2-3.2,6-6.6,8.4-9.8C168.9,89.7,166.3,87.1,163.4,84.7z"/><path fill="#000000" d="M109.1,114.9c1.6-2.2,3.5-4.2,5.8-5.8c-3-4.9-7.1-10.6-12.5-16c-3.2-3.2-6.6-6-9.8-8.4c-2.9,2.3-5.5,5-7.9,7.9c2.3,3.2,5.1,6.6,8.4,9.8C98.5,107.8,104.2,111.9,109.1,114.9z"/><path fill="#000000" d="M109.1,141.1c-4.9,3-10.6,7.1-16,12.5c-3.2,3.2-6,6.6-8.4,9.8c2.3,2.9,5,5.5,7.9,7.8c3.2-2.4,6.6-5.1,9.8-8.4c5.4-5.4,9.5-11.1,12.5-16C112.6,145.3,110.7,143.4,109.1,141.1z"/><path fill="#000000" d="M150.6,123.9c0.2,1.3,0.4,2.7,0.4,4.1s-0.2,2.7-0.4,4.1c5.6,1.3,12.5,2.5,20.2,2.5c4.6,0,8.9-0.4,12.9-1c0.2-1.8,0.3-3.7,0.3-5.5c0-1.9-0.1-3.7-0.3-5.5c-3.9-0.6-8.3-1.1-12.9-1.1C163.1,121.4,156.2,122.6,150.6,123.9z"/><path fill="#000000" d="M146.9,141.1c-1.6,2.2-3.5,4.2-5.8,5.8c3,4.9,7.1,10.6,12.5,16c3.2,3.2,6.6,6,9.8,8.4c2.9-2.4,5.5-5,7.8-7.8c-2.4-3.2-5.1-6.6-8.4-9.8C157.5,148.2,151.8,144.1,146.9,141.1z"/><path fill="#000000" d="M128,151c-1.4,0-2.7-0.2-4.1-0.4c-1.3,5.6-2.5,12.5-2.5,20.2c0,4.6,0.4,8.9,1,12.9c1.8,0.2,3.7,0.3,5.5,0.3c1.9,0,3.7-0.1,5.5-0.3c0.6-3.9,1.1-8.3,1.1-12.9c0-7.7-1.2-14.6-2.5-20.2C130.7,150.9,129.4,151,128,151z"/><path fill="#000000" d="M128,111.5c9.1,0,16.5,7.4,16.5,16.5c0,9.1-7.4,16.5-16.5,16.5s-16.5-7.4-16.5-16.5C111.5,118.9,118.9,111.5,128,111.5z"/></g></g><g></g><g></g><g></g><g></g><g></g><g></g><g></g><g></g><g></g><g></g><g></g><g></g><g></g><g></g><g></g></g></g>
</svg>