<?xml version="1.0" encoding="UTF-8" standalone="no"?>
<svg
   version="1.1"
   width="256"
   height="256"
   viewBox="0 0 256 256"
   xml:space="preserve"
   id="svg1"
   xmlns:inkscape="http://www.inkscape.org/namespaces/inkscape"
   xmlns:sodipodi="http://sodipodi.sourceforge.net/DTD/sodipodi-0.dtd"
   xmlns="http://www.w3.org/2000/svg"
   xmlns:svg="http://www.w3.org/2000/svg">

<defs
   id="defs1">
</defs>

<g
   id="g15"
   style="display:inline;stroke:#000000"
   transform="matrix(0.99473543,0,0,1.0001002,-0.57192147,-8.8363861)"><path
     style="fill:none;stroke:#000000;stroke-width:5;stroke-linecap:butt;stroke-linejoin:miter;stroke-miterlimit:4;stroke-dasharray:none;stroke-opacity:1"
     d="m 180.79858,124.94749 -33.11329,-21.1925 -39.5152,-9.492482 -10.817008,0.44151 -33.775559,-8.830211 -5.298127,-9.933988 -41.281239,-4.415106 3.75284,8.388701 143.711693,81.017196"
     id="path1975" /><path
     style="fill:none;stroke:#000000;stroke-width:5;stroke-linecap:butt;stroke-linejoin:miter;stroke-dasharray:none;stroke-opacity:1"
     d="m 107.72858,94.483264 c 23.16423,-28.952415 49.33846,-23.934917 76.60209,-6.622659 l 36.42462,21.854775"
     id="path1"
     sodipodi:nodetypes="ccc" /><path
     style="fill:none;stroke:#000000;stroke-width:5;stroke-linecap:butt;stroke-linejoin:miter;stroke-dasharray:none;stroke-opacity:1"
     d="m 184.99293,88.522871 c -22.39056,3.891968 -28.35488,9.889252 -37.30764,15.452869"
     id="path2"
     sodipodi:nodetypes="cc" /><path
     style="fill:none;stroke:#000000;stroke-width:5;stroke-linecap:butt;stroke-linejoin:miter;stroke-dasharray:none;stroke-opacity:1"
     d="m 178.81178,84.107765 15.01136,-10.154743 3.31133,-12.583052 c 21.29917,11.094592 35.56605,27.103155 36.86614,47.02087 -46.88668,-0.66835 -74.69615,25.71243 -67.55112,73.95303 H 92.054955 c 6.97348,-24.37795 0.818708,-49.28104 -21.634018,-74.83604"
     id="path3"
     sodipodi:nodetypes="ccccccc" /><g
     id="g9"
     style="stroke:#000000"><path
       id="path7"
       style="fill:none;stroke:#000000;stroke-width:5"
       d="m 68.484382,147.57635 c 3.343842,4.80868 5.304037,10.65173 5.304038,16.95261 3e-6,16.41883 -13.310092,29.72893 -29.728926,29.72893 -16.418834,0 -29.728928,-13.3101 -29.728926,-29.72893 3e-6,-16.41883 13.310096,-29.72892 29.728926,-29.72892 6.560979,0 12.625552,2.12537 17.542785,5.72517"
       sodipodi:nodetypes="cssssc" /><path
       id="circle7"
       style="fill:none;stroke:#000000;stroke-width:5"
       d="m 75.471071,140.66267 c 5.042534,6.62651 8.036101,14.89681 8.036101,23.86629 -10e-7,21.78635 -17.661326,39.44768 -39.447678,39.44768 -21.786352,0 -39.4476787,-17.66133 -39.4476776,-39.44768 -1.1e-6,-21.78635 17.6613256,-39.44768 39.4476776,-39.44768 9.309855,0 17.866452,3.22508 24.613522,8.61896"
       sodipodi:nodetypes="cssssc" /><circle
       style="fill:none;stroke:#000000;stroke-width:5;stroke-dasharray:none"
       id="circle9"
       cy="164.52896"
       cx="44.059494"
       r="7.4796395" /></g><g
     id="g12"
     transform="translate(170.55627)"
     style="stroke:#000000"><path
       id="circle10"
       style="fill:none;stroke:#000000;stroke-width:5"
       d="m 37.945598,135.42936 c 1.973176,-0.41248 4.018213,-0.62932 6.113896,-0.62932 16.41883,0 29.728923,13.31009 29.728926,29.72892 2e-6,16.41883 -13.310092,29.72893 -29.728926,29.72893 -16.418834,0 -29.728929,-13.3101 -29.728926,-29.72893 2e-6,-10.9612 5.932162,-20.53687 14.761153,-25.69168"
       sodipodi:nodetypes="cssssc" /><path
       id="circle11"
       style="fill:none;stroke:#000000;stroke-width:5"
       d="m 34.391129,126.27476 c 3.093698,-0.77946 6.332681,-1.19348 9.668365,-1.19348 21.786352,0 39.447679,17.66133 39.447678,39.44768 10e-7,21.78635 -17.661326,39.44768 -39.447678,39.44768 -21.786352,0 -39.4476765,-17.66133 -39.4476776,-39.44768 -7e-7,-15.03754 8.4141066,-28.10987 20.7911216,-34.76577"
       sodipodi:nodetypes="cssssc" /><circle
       style="fill:none;stroke:#000000;stroke-width:5;stroke-dasharray:none"
       id="circle12"
       cy="164.52896"
       cx="44.059494"
       r="7.4796395" /></g><path
     style="fill:none;stroke:#000000;stroke-width:5;stroke-linecap:butt;stroke-linejoin:miter;stroke-dasharray:none;stroke-opacity:1"
     d="m 44.845023,157.2503 36.063361,-36.06336 c 2.868403,2.92722 4.004727,5.85444 5.03482,8.78166 l -34.072851,33.6045 c -0.846353,-2.92329 -2.75594,-5.26663 -7.02533,-6.3228 z"
     id="path12"
     sodipodi:nodetypes="ccccc" /><path
     style="fill:none;stroke:#000000;stroke-width:4.97004;stroke-linecap:butt;stroke-linejoin:miter;stroke-dasharray:none;stroke-opacity:1"
     d="m 191.41515,118.65156 16.89225,42.03261 c 2.38869,-3.02898 5.16238,-4.73148 8.79805,-3.46423 l -17.12686,-42.95639 c -2.85448,1.20918 -5.70896,2.56683 -8.56344,4.38801 z"
     id="path13"
     sodipodi:nodetypes="ccccc" /></g></svg>
